<svg width="308" height="246" viewBox="0 0 308 246" fill="none" xmlns="http://www.w3.org/2000/svg">
<path d="M230.75 154.616C230.75 195.878 222.154 233.216 208.275 260.224C194.386 287.252 175.265 303.836 154.25 303.836C133.235 303.836 114.114 287.252 100.225 260.224C86.3455 233.216 77.75 195.878 77.75 154.616C77.75 113.354 86.3455 76.0162 100.225 49.0081C114.114 21.9804 133.235 5.39648 154.25 5.39648C175.265 5.39648 194.386 21.9804 208.275 49.0081C222.154 76.0162 230.75 113.354 230.75 154.616Z" stroke="white" stroke-width="0.75"/>
<path d="M154.366 73.8457C195.628 73.8457 232.966 82.4412 259.974 96.3204C287.002 110.21 303.586 129.33 303.586 150.346C303.586 171.361 287.002 190.482 259.974 204.371C232.966 218.25 195.628 226.846 154.366 226.846C113.104 226.846 75.7662 218.25 48.7581 204.371C21.7304 190.482 5.14648 171.361 5.14648 150.346C5.14648 129.33 21.7304 110.21 48.7581 96.3204C75.7662 82.4412 113.104 73.8457 154.366 73.8457Z" stroke="white" stroke-width="0.75"/>
<circle cx="154.25" cy="154.5" r="153.375" stroke="white" stroke-width="0.75"/>
</svg>