<svg width="224" height="187" viewBox="0 0 224 187" fill="none" xmlns="http://www.w3.org/2000/svg">
<path d="M179.5 120.09C179.5 152.269 172.796 181.377 161.982 202.421C151.154 223.492 136.284 236.347 120 236.347C103.716 236.347 88.8463 223.492 78.0183 202.421C67.2037 181.377 60.5 152.269 60.5 120.09C60.5 87.9117 67.2037 58.8041 78.0183 37.7595C88.8463 16.6888 103.716 3.83374 120 3.83374C136.284 3.83374 151.154 16.6888 161.982 37.7595C172.796 58.8041 179.5 87.9117 179.5 120.09Z" stroke="white"/>
<path d="M120.091 57.2576C152.269 57.2576 181.377 63.9613 202.422 74.7759C223.492 85.6039 236.347 100.473 236.347 116.758C236.347 133.042 223.492 147.911 202.422 158.739C181.377 169.554 152.269 176.258 120.091 176.258C87.912 176.258 58.8044 169.554 37.7598 158.739C16.6891 147.911 3.83398 133.042 3.83398 116.758C3.83398 100.473 16.6891 85.6039 37.7598 74.7759C58.8044 63.9613 87.912 57.2576 120.091 57.2576Z" stroke="white"/>
<circle cx="120" cy="120" r="119.5" stroke="white"/>
</svg>
