<svg width="220" height="175" viewBox="0 0 220 175" fill="none" xmlns="http://www.w3.org/2000/svg">
<path d="M164.333 110.149C164.333 139.491 158.221 166.043 148.351 185.248C138.474 204.468 124.877 216.261 109.933 216.261C94.9891 216.261 81.3921 204.468 71.5153 185.248C61.6456 166.043 55.5333 139.491 55.5333 110.149C55.5333 80.8072 61.6456 54.2562 71.5153 35.0504C81.3921 15.8307 94.9891 4.03766 109.933 4.03766C124.877 4.03766 138.474 15.8307 148.351 35.0504C158.221 54.2562 164.333 80.8072 164.333 110.149Z" stroke="white" stroke-width="0.533333"/>
<path d="M110.016 52.7126C139.358 52.7126 165.909 58.825 185.115 68.6946C204.335 78.5714 216.128 92.1684 216.128 107.113C216.128 122.057 204.335 135.654 185.115 145.531C165.909 155.4 139.358 161.513 110.016 161.513C80.6739 161.513 54.1229 155.4 34.9171 145.531C15.6974 135.654 3.90436 122.057 3.90436 107.113C3.90436 92.1684 15.6974 78.5714 34.9171 68.6946C54.1229 58.825 80.6739 52.7126 110.016 52.7126Z" stroke="white" stroke-width="0.533333"/>
<circle cx="109.933" cy="110.067" r="109.067" stroke="white" stroke-width="0.533333"/>
</svg>



