<svg width="410" height="184" viewBox="0 0 410 184" fill="none" xmlns="http://www.w3.org/2000/svg">
<path d="M307 205.155C307 260.171 295.539 309.955 277.034 345.965C258.515 382.002 233.02 404.114 205 404.114C176.98 404.114 151.485 382.002 132.966 345.965C114.461 309.955 103 260.171 103 205.155C103 150.138 114.461 100.355 132.966 64.3442C151.485 28.3072 176.98 6.19531 205 6.19531C233.02 6.19531 258.515 28.3072 277.034 64.3442C295.539 100.355 307 150.138 307 205.155Z" stroke="white"/>
<path d="M205.155 97.4609C260.171 97.4609 309.955 108.922 345.965 127.427C382.002 145.946 404.114 171.441 404.114 199.461C404.114 227.481 382.002 252.976 345.965 271.495C309.955 290 260.171 301.461 205.155 301.461C150.138 301.461 100.355 290 64.3442 271.495C28.3072 252.976 6.19531 227.481 6.19531 199.461C6.19531 171.441 28.3072 145.946 64.3442 127.427C100.355 108.922 150.138 97.4609 205.155 97.4609Z" stroke="white"/>
<circle cx="205" cy="205" r="204.5" stroke="white"/>
</svg>