<svg width="116" height="82" viewBox="0 0 116 82" fill="none" xmlns="http://www.w3.org/2000/svg">
<path d="M0.15 79.8769L0.204 69.8329L34.062 39.4849C36.798 37.0729 38.652 34.7689 39.624 32.5729C40.632 30.3769 41.136 28.1809 41.136 25.9849C41.136 23.2129 40.524 20.7289 39.3 18.5329C38.076 16.3009 36.384 14.5369 34.224 13.2409C32.064 11.9449 29.58 11.2969 26.772 11.2969C23.892 11.2969 21.318 11.9809 19.05 13.3489C16.818 14.6809 15.072 16.4629 13.812 18.6949C12.552 20.9269 11.94 23.3389 11.976 25.9309H0.42C0.42 20.8909 1.554 16.4809 3.822 12.7009C6.126 8.88491 9.276 5.9149 13.272 3.7909C17.268 1.63091 21.84 0.550907 26.988 0.550907C31.884 0.550907 36.276 1.66691 40.164 3.8989C44.052 6.0949 47.112 9.1189 49.344 12.9709C51.612 16.8229 52.746 21.2149 52.746 26.1469C52.746 29.7109 52.278 32.7349 51.342 35.2189C50.406 37.7029 49.002 40.0069 47.13 42.1309C45.258 44.2549 42.918 46.5589 40.11 49.0429L13.974 72.3709L12.732 69.1309H52.746V79.8769H0.15ZM88.7547 81.5509C84.7587 81.5509 81.0327 80.7409 77.5767 79.1209C74.1567 77.4649 71.2227 75.1969 68.7747 72.3169C66.3267 69.4009 64.5807 66.0529 63.5367 62.2729L74.3907 59.3569C75.0027 61.6609 76.0467 63.6589 77.5227 65.3509C79.0347 67.0429 80.7987 68.3569 82.8147 69.2929C84.8307 70.1929 86.9187 70.6429 89.0787 70.6429C91.9227 70.6429 94.4967 69.9589 96.8007 68.5909C99.1407 67.2229 100.977 65.3869 102.309 63.0829C103.677 60.7789 104.361 58.2409 104.361 55.4689C104.361 52.6249 103.659 50.0509 102.255 47.7469C100.887 45.4429 99.0327 43.6249 96.6927 42.2929C94.3887 40.9249 91.8507 40.2409 89.0787 40.2409C85.9107 40.2409 83.2287 40.8709 81.0327 42.1309C78.8367 43.3909 77.1267 44.8489 75.9027 46.5049L66.0747 43.0489L68.4507 2.17091H110.409V12.8089H74.2287L78.8187 8.54291L76.9287 39.1609L74.7147 36.2989C76.7667 34.2469 79.2147 32.6809 82.0587 31.6009C84.9027 30.5209 87.7287 29.9809 90.5367 29.9809C95.3607 29.9809 99.6627 31.0969 103.443 33.3289C107.259 35.5609 110.265 38.6029 112.461 42.4549C114.657 46.2709 115.755 50.6089 115.755 55.4689C115.755 60.2929 114.513 64.6849 112.029 68.6449C109.545 72.5689 106.251 75.7009 102.147 78.0409C98.0427 80.3809 93.5787 81.5509 88.7547 81.5509Z" fill="#AE83E4"/>
</svg>
