<svg width="155" height="109" viewBox="0 0 155 109" fill="none" xmlns="http://www.w3.org/2000/svg">
<path d="M0.2 105.928L0.272 92.536L45.416 52.072C49.064 48.856 51.536 45.784 52.832 42.856C54.176 39.928 54.848 37 54.848 34.072C54.848 30.376 54.032 27.064 52.4 24.136C50.768 21.16 48.512 18.808 45.632 17.08C42.752 15.352 39.44 14.488 35.696 14.488C31.856 14.488 28.424 15.4 25.4 17.224C22.424 19 20.096 21.376 18.416 24.352C16.736 27.328 15.92 30.544 15.968 34H0.56C0.56 27.28 2.072 21.4 5.096 16.36C8.168 11.272 12.368 7.31199 17.696 4.47999C23.024 1.6 29.12 0.159998 35.984 0.159998C42.512 0.159998 48.368 1.648 53.552 4.62399C58.736 7.55199 62.816 11.584 65.792 16.72C68.816 21.856 70.328 27.712 70.328 34.288C70.328 39.04 69.704 43.072 68.456 46.384C67.208 49.696 65.336 52.768 62.84 55.6C60.344 58.432 57.224 61.504 53.48 64.816L18.632 95.92L16.976 91.6H70.328V105.928H0.2ZM118.34 108.16C113.012 108.16 108.044 107.08 103.436 104.92C98.8756 102.712 94.9636 99.688 91.6996 95.848C88.4356 91.96 86.1076 87.496 84.7156 82.456L99.1876 78.568C100.004 81.64 101.396 84.304 103.364 86.56C105.38 88.816 107.732 90.568 110.42 91.816C113.108 93.016 115.892 93.616 118.772 93.616C122.564 93.616 125.996 92.704 129.068 90.88C132.188 89.056 134.636 86.608 136.412 83.536C138.236 80.464 139.148 77.08 139.148 73.384C139.148 69.592 138.212 66.16 136.34 63.088C134.516 60.016 132.044 57.592 128.924 55.816C125.852 53.992 122.468 53.08 118.772 53.08C114.548 53.08 110.972 53.92 108.044 55.6C105.116 57.28 102.836 59.224 101.204 61.432L88.0996 56.824L91.2676 2.32H147.212V16.504H98.9716L105.092 10.816L102.572 51.64L99.6196 47.824C102.356 45.088 105.62 43 109.412 41.56C113.204 40.12 116.972 39.4 120.716 39.4C127.148 39.4 132.884 40.888 137.924 43.864C143.012 46.84 147.02 50.896 149.948 56.032C152.876 61.12 154.34 66.904 154.34 73.384C154.34 79.816 152.684 85.672 149.372 90.952C146.06 96.184 141.668 100.36 136.196 103.48C130.724 106.6 124.772 108.16 118.34 108.16Z" fill="#AE83E4"/>
</svg>
