<svg width="83" height="58" viewBox="0 0 83 58" fill="none" xmlns="http://www.w3.org/2000/svg">
<path d="M0.773594 56.7792L0.811994 49.6368L24.8888 28.056C26.8344 26.3408 28.1528 24.7024 28.844 23.1408C29.5608 21.5792 29.9192 20.0176 29.9192 18.456C29.9192 16.4848 29.484 14.7184 28.6136 13.1568C27.7432 11.5696 26.54 10.3152 25.004 9.39362C23.468 8.47202 21.7016 8.01122 19.7048 8.01122C17.6568 8.01122 15.8264 8.49762 14.2136 9.47042C12.6264 10.4176 11.3848 11.6848 10.4888 13.272C9.59279 14.8592 9.15759 16.5744 9.18319 18.4176H0.965594C0.965594 14.8336 1.77199 11.6976 3.38479 9.00962C5.02319 6.29602 7.26319 4.18402 10.1048 2.67362C12.9464 1.13762 16.1976 0.369624 19.8584 0.369624C23.34 0.369624 26.4632 1.16322 29.228 2.75042C31.9928 4.31202 34.1688 6.46242 35.756 9.20162C37.3688 11.9408 38.1752 15.064 38.1752 18.5712C38.1752 21.1056 37.8424 23.256 37.1768 25.0224C36.5112 26.7888 35.5128 28.4272 34.1816 29.9376C32.8504 31.448 31.1864 33.0864 29.1896 34.8528L10.604 51.4416L9.72079 49.1376H38.1752V56.7792H0.773594ZM63.7814 57.9696C60.9398 57.9696 58.2902 57.3936 55.8326 56.2416C53.4006 55.064 51.3142 53.4512 49.5734 51.4032C47.8326 49.3296 46.591 46.9488 45.8486 44.2608L53.567 42.1872C54.0022 43.8256 54.7446 45.2464 55.7942 46.4496C56.8694 47.6528 58.1238 48.5872 59.5574 49.2528C60.991 49.8928 62.4758 50.2128 64.0118 50.2128C66.0342 50.2128 67.8646 49.7264 69.503 48.7536C71.167 47.7808 72.4726 46.4752 73.4198 44.8368C74.3926 43.1984 74.879 41.3936 74.879 39.4224C74.879 37.4 74.3798 35.5696 73.3814 33.9312C72.4086 32.2928 71.0902 31 69.4262 30.0528C67.7878 29.08 65.983 28.5936 64.0118 28.5936C61.759 28.5936 59.8518 29.0416 58.2902 29.9376C56.7286 30.8336 55.5126 31.8704 54.6422 33.048L47.6534 30.5904L49.343 1.52162H79.1798V9.08642H53.4518L56.7158 6.05282L55.3718 27.8256L53.7974 25.7904C55.2566 24.3312 56.9974 23.2176 59.0198 22.4496C61.0422 21.6816 63.0518 21.2976 65.0486 21.2976C68.479 21.2976 71.5382 22.0912 74.2262 23.6784C76.9398 25.2656 79.0774 27.4288 80.639 30.168C82.2006 32.8816 82.9814 35.9664 82.9814 39.4224C82.9814 42.8528 82.0982 45.976 80.3318 48.792C78.5654 51.5824 76.223 53.8096 73.3046 55.4736C70.3862 57.1376 67.2118 57.9696 63.7814 57.9696Z" fill="#AE83E4"/>
</svg>
