<svg width="95" height="95" viewBox="0 0 95 95" fill="none" xmlns="http://www.w3.org/2000/svg">
<circle cx="47.1999" cy="47.9111" r="46.9333" fill="#AE83E4"/>
<path d="M56.5334 47.9253C56.5334 53.0505 55.4653 57.6772 53.7511 61.0129C52.0298 64.3625 49.6995 66.3397 47.2001 66.3397C44.7007 66.3397 42.3704 64.3625 40.6491 61.0129C38.9349 57.6772 37.8668 53.0505 37.8668 47.9253C37.8668 42.8001 38.9349 38.1733 40.6491 34.8376C42.3704 31.488 44.7007 29.5109 47.2001 29.5109C49.6995 29.5109 52.0298 31.488 53.7511 34.8376C55.4653 38.1733 56.5334 42.8001 56.5334 47.9253Z" stroke="white" stroke-width="0.533333"/>
<path d="M47.2143 38.0589C52.3395 38.0589 56.9662 39.127 60.3019 40.8412C63.6515 42.5625 65.6287 44.8928 65.6287 47.3922C65.6287 49.8916 63.6515 52.2219 60.3019 53.9433C56.9662 55.6574 52.3395 56.7256 47.2143 56.7256C42.0891 56.7256 37.4623 55.6574 34.1266 53.9433C30.777 52.2219 28.7999 49.8916 28.7999 47.3922C28.7999 44.8928 30.777 42.5625 34.1266 40.8412C37.4623 39.127 42.0891 38.0589 47.2143 38.0589Z" stroke="white" stroke-width="0.533333"/>
<circle cx="47.2" cy="47.911" r="18.9333" stroke="white" stroke-width="0.533333"/>
</svg>
