<svg width="176" height="176" viewBox="0 0 176 176" fill="none" xmlns="http://www.w3.org/2000/svg">
<circle cx="88" cy="88" r="88" fill="#0773DF"/>
<path d="M105.5 88.027C105.5 97.6367 103.497 106.312 100.283 112.566C97.0557 118.847 92.6863 122.554 88 122.554C83.3137 122.554 78.9443 118.847 75.7168 112.566C72.5027 106.312 70.5 97.6367 70.5 88.027C70.5 78.4173 72.5027 69.7421 75.7168 63.4877C78.9443 57.2072 83.3137 53.5 88 53.5C92.6863 53.5 97.0557 57.2072 100.283 63.4877C103.497 69.7421 105.5 78.4173 105.5 88.027Z" stroke="white"/>
<path d="M88.027 69.5273C97.6367 69.5273 106.312 71.5301 112.566 74.7441C118.847 77.9716 122.554 82.341 122.554 87.0273C122.554 91.7137 118.847 96.083 112.566 99.3106C106.312 102.525 97.6367 104.527 88.027 104.527C78.4173 104.527 69.7421 102.525 63.4877 99.3106C57.2072 96.083 53.5 91.7137 53.5 87.0273C53.5 82.341 57.2072 77.9716 63.4877 74.7441C69.7421 71.5301 78.4173 69.5273 88.027 69.5273Z" stroke="white"/>
<circle cx="88" cy="88" r="35.5" stroke="white"/>
</svg>
