<svg width="120" height="120" viewBox="0 0 120 120" fill="none" xmlns="http://www.w3.org/2000/svg">
<circle cx="60" cy="60" r="60" fill="#AE83E4"/>
<path d="M71.897 60.0184C71.897 66.5662 70.5323 72.4756 68.3439 76.7342C66.1453 81.0124 63.1751 83.5255 59.9993 83.5255C56.8234 83.5255 53.8532 81.0124 51.6547 76.7342C49.4662 72.4756 48.1016 66.5662 48.1016 60.0184C48.1016 53.4706 49.4662 47.5613 51.6547 43.3026C53.8532 39.0244 56.8234 36.5114 59.9993 36.5114C63.1751 36.5114 66.1453 39.0244 68.3439 43.3026C70.5323 47.5613 71.897 53.4706 71.897 60.0184Z" stroke="white" stroke-width="0.75"/>
<path d="M60.0178 47.439C66.5656 47.439 72.475 48.8037 76.7336 50.9922C81.0118 53.1907 83.5249 56.1609 83.5249 59.3368C83.5249 62.5126 81.0118 65.4828 76.7336 67.6814C72.475 69.8698 66.5656 71.2345 60.0178 71.2345C53.47 71.2345 47.5607 69.8698 43.302 67.6814C39.0238 65.4828 36.5107 62.5126 36.5107 59.3368C36.5107 56.1609 39.0238 53.1907 43.302 50.9922C47.5607 48.8037 53.47 47.439 60.0178 47.439Z" stroke="white" stroke-width="0.75"/>
<circle cx="59.9996" cy="60" r="24.1705" stroke="white" stroke-width="0.75"/>
</svg>
