<svg width="132" height="132" viewBox="0 0 133 132" fill="none" xmlns="http://www.w3.org/2000/svg">
<circle cx="66.25" cy="66" r="66" fill="#AE83E4"/>
<path d="M79.375 66.02C79.375 73.2273 77.873 79.7337 75.4624 84.4245C73.0418 89.1349 69.7648 91.9153 66.25 91.9153C62.7352 91.9153 59.4582 89.1349 57.0376 84.4245C54.627 79.7337 53.125 73.2273 53.125 66.02C53.125 58.8127 54.627 52.3063 57.0376 47.6155C59.4582 42.9051 62.7352 40.1248 66.25 40.1248C69.7648 40.1248 73.0418 42.9051 75.4624 47.6155C77.873 52.3063 79.375 58.8127 79.375 66.02Z" stroke="white" stroke-width="0.75"/>
<path d="M66.2703 52.1454C73.4776 52.1454 79.984 53.6474 84.6748 56.058C89.3852 58.4786 92.1655 61.7556 92.1655 65.2704C92.1655 68.7851 89.3852 72.0622 84.6748 74.4828C79.984 76.8933 73.4776 78.3954 66.2703 78.3954C59.063 78.3954 52.5566 76.8933 47.8658 74.4828C43.1554 72.0622 40.375 68.7851 40.375 65.2704C40.375 61.7556 43.1554 58.4786 47.8658 56.058C52.5566 53.6474 59.063 52.1454 66.2703 52.1454Z" stroke="white" stroke-width="0.75"/>
<circle cx="66.25" cy="65.9999" r="26.625" stroke="white" stroke-width="0.75"/>
</svg>
