<svg width="100" height="100" viewBox="0 0 100 100" fill="none" xmlns="http://www.w3.org/2000/svg">
<path d="M37.5 84.375H18.75C17.9212 84.375 17.1263 84.0458 16.5403 83.4597C15.9542 82.8737 15.625 82.0788 15.625 81.25V63.7944C15.625 63.384 15.7058 62.9777 15.8629 62.5985C16.0199 62.2194 16.2501 61.8749 16.5403 61.5847L63.4153 14.7097C64.0013 14.1237 64.7962 13.7944 65.625 13.7944C66.4538 13.7944 67.2487 14.1237 67.8347 14.7097L85.2903 32.1653C85.8763 32.7513 86.2056 33.5462 86.2056 34.375C86.2056 35.2038 85.8763 35.9987 85.2903 36.5847L37.5 84.375Z" stroke="#0773DF" stroke-width="1.6" stroke-linecap="round" stroke-linejoin="round"/>
<path d="M53.125 25L75 46.875" stroke="#0773DF" stroke-width="1.6" stroke-linecap="round" stroke-linejoin="round"/>
<path d="M84.375 84.375H37.5L15.8239 62.6988" stroke="#0773DF" stroke-width="1.6" stroke-linecap="round" stroke-linejoin="round"/>
</svg>
