<svg width="74" height="74" viewBox="0 0 74 74" fill="none" xmlns="http://www.w3.org/2000/svg">
<path d="M23.5 72.375H4.75C3.9212 72.375 3.12634 72.0458 2.54029 71.4597C1.95424 70.8737 1.625 70.0788 1.625 69.25V51.7944C1.625 51.3841 1.70583 50.9777 1.86288 50.5985C2.01992 50.2194 2.25011 49.8749 2.54029 49.5847L49.4153 2.70972C50.0013 2.12367 50.7962 1.79443 51.625 1.79443C52.4538 1.79443 53.2487 2.12367 53.8347 2.70972L71.2903 20.1653C71.8763 20.7514 72.2056 21.5462 72.2056 22.375C72.2056 23.2038 71.8763 23.9987 71.2903 24.5847L23.5 72.375Z" stroke="#AE83E4" stroke-width="1.6" stroke-linecap="round" stroke-linejoin="round"/>
</svg>
