<svg width="100" height="100" viewBox="0 0 100 100" fill="none" xmlns="http://www.w3.org/2000/svg">
<path d="M59.375 42.1875H71.875" stroke="#AE83E4" stroke-width="1.6" stroke-linecap="round" stroke-linejoin="round"/>
<path d="M28.125 42.1875H40.625" stroke="#AE83E4" stroke-width="1.6" stroke-linecap="round" stroke-linejoin="round"/>
<path d="M34.375 35.9375V48.4375" stroke="#AE83E4" stroke-width="1.6" stroke-linecap="round" stroke-linejoin="round"/>
<path d="M67.1947 21.7734L32.8143 21.875C28.0386 21.8754 23.4156 23.5579 19.7569 26.6273C16.0982 29.6967 13.6376 33.9567 12.807 38.6597L12.8104 38.6603L6.41801 71.5364C6.01425 73.8272 6.35127 76.187 7.38013 78.2732C8.40899 80.3594 10.0761 82.0632 12.1394 83.1373C14.2026 84.2114 16.5545 84.5998 18.8536 84.2461C21.1526 83.8924 23.279 82.8149 24.924 81.1703L24.9233 81.1696L41.8122 62.5L67.1947 62.3984C72.5819 62.3984 77.7484 60.2583 81.5578 56.449C85.3671 52.6396 87.5072 47.4731 87.5072 42.0859C87.5072 36.6987 85.3671 31.5321 81.5578 27.7228C77.7484 23.9134 72.5819 21.7734 67.1947 21.7734V21.7734Z" stroke="#AE83E4" stroke-width="1.6" stroke-linecap="round" stroke-linejoin="round"/>
<path d="M87.1986 38.5586L93.5857 71.5364C93.9894 73.8272 93.6524 76.187 92.6236 78.2732C91.5947 80.3594 89.9276 82.0632 87.8643 83.1373C85.8011 84.2114 83.4491 84.5998 81.1501 84.2461C78.851 83.8924 76.7246 82.815 75.0797 81.1703L75.0803 81.1696L58.2031 62.4344" stroke="#AE83E4" stroke-width="1.6" stroke-linecap="round" stroke-linejoin="round"/>
</svg>
