<svg width="211" height="107" viewBox="0 0 211 107" fill="none" xmlns="http://www.w3.org/2000/svg">
<path d="M20.152 104V16.88L0.64 28.76V11.984L20.152 0.319996H35.488V104H20.152ZM93.574 106.16C88.246 106.16 83.278 105.08 78.67 102.92C74.11 100.712 70.198 97.688 66.934 93.848C63.67 89.96 61.342 85.496 59.95 80.456L74.422 76.568C75.238 79.64 76.63 82.304 78.598 84.56C80.614 86.816 82.966 88.568 85.654 89.816C88.342 91.016 91.126 91.616 94.006 91.616C97.798 91.616 101.23 90.704 104.302 88.88C107.422 87.056 109.87 84.608 111.646 81.536C113.47 78.464 114.382 75.08 114.382 71.384C114.382 67.592 113.446 64.16 111.574 61.088C109.75 58.016 107.278 55.592 104.158 53.816C101.086 51.992 97.702 51.08 94.006 51.08C89.782 51.08 86.206 51.92 83.278 53.6C80.35 55.28 78.07 57.224 76.438 59.432L63.334 54.824L66.502 0.319996H122.446V14.504H74.206L80.326 8.816L77.806 49.64L74.854 45.824C77.59 43.088 80.854 41 84.646 39.56C88.438 38.12 92.206 37.4 95.95 37.4C102.382 37.4 108.118 38.888 113.158 41.864C118.246 44.84 122.254 48.896 125.182 54.032C128.11 59.12 129.574 64.904 129.574 71.384C129.574 77.816 127.918 83.672 124.606 88.952C121.294 94.184 116.902 98.36 111.43 101.48C105.958 104.6 100.006 106.16 93.574 106.16ZM171.983 84.776V58.136H145.343V46.04H171.983V19.544H184.079V46.04H210.647V58.136H184.079V84.776H171.983Z" fill="#AE83E4"/>
</svg>