<svg width="159" height="80" viewBox="0 0 159 80" fill="none" xmlns="http://www.w3.org/2000/svg">
<path d="M15.614 77.9309V12.5909L0.98 21.5009V8.9189L15.614 0.170905H27.116V77.9309H15.614ZM70.6805 79.5509C66.6845 79.5509 62.9585 78.7409 59.5025 77.1209C56.0825 75.4649 53.1485 73.1969 50.7005 70.3169C48.2525 67.4009 46.5065 64.0529 45.4625 60.2729L56.3165 57.3569C56.9285 59.6609 57.9725 61.6589 59.4485 63.3509C60.9605 65.0429 62.7245 66.3569 64.7405 67.2929C66.7565 68.1929 68.8445 68.6429 71.0045 68.6429C73.8485 68.6429 76.4225 67.9589 78.7265 66.5909C81.0665 65.2229 82.9025 63.3869 84.2345 61.0829C85.6025 58.7789 86.2865 56.2409 86.2865 53.4689C86.2865 50.6249 85.5845 48.0509 84.1805 45.7469C82.8125 43.4429 80.9585 41.6249 78.6185 40.2929C76.3145 38.9249 73.7765 38.2409 71.0045 38.2409C67.8365 38.2409 65.1545 38.8709 62.9585 40.1309C60.7625 41.3909 59.0525 42.8489 57.8285 44.5049L48.0005 41.0489L50.3765 0.170905H92.3345V10.8089H56.1545L60.7445 6.54291L58.8545 37.1609L56.6405 34.2989C58.6925 32.2469 61.1405 30.6809 63.9845 29.6009C66.8285 28.5209 69.6545 27.9809 72.4625 27.9809C77.2865 27.9809 81.5885 29.0969 85.3685 31.3289C89.1845 33.5609 92.1905 36.6029 94.3865 40.4549C96.5825 44.2709 97.6805 48.6089 97.6805 53.4689C97.6805 58.2929 96.4385 62.6849 93.9545 66.6449C91.4705 70.5689 88.1765 73.7009 84.0725 76.0409C79.9685 78.3809 75.5045 79.5509 70.6805 79.5509ZM129.487 63.5129V43.5329H109.507V34.4609H129.487V14.5889H138.559V34.4609H158.485V43.5329H138.559V63.5129H129.487Z" fill="#AE83E4"/>
</svg>
