<svg width="113" height="57" viewBox="0 0 113 57" fill="none" xmlns="http://www.w3.org/2000/svg">
<path d="M11.0813 55.8176V9.35362L0.674895 15.6896V6.74242L11.0813 0.521623H19.2605V55.8176H11.0813ZM50.2397 56.9696C47.3981 56.9696 44.7485 56.3936 42.2909 55.2416C39.8589 54.064 37.7725 52.4512 36.0317 50.4032C34.2909 48.3296 33.0493 45.9488 32.3069 43.2608L40.0253 41.1872C40.4605 42.8256 41.2029 44.2464 42.2525 45.4496C43.3277 46.6528 44.5821 47.5872 46.0157 48.2528C47.4493 48.8928 48.9341 49.2128 50.4701 49.2128C52.4925 49.2128 54.3229 48.7264 55.9613 47.7536C57.6253 46.7808 58.9309 45.4752 59.8781 43.8368C60.8509 42.1984 61.3373 40.3936 61.3373 38.4224C61.3373 36.4 60.8381 34.5696 59.8397 32.9312C58.8669 31.2928 57.5485 30 55.8845 29.0528C54.2461 28.08 52.4413 27.5936 50.4701 27.5936C48.2173 27.5936 46.3101 28.0416 44.7485 28.9376C43.1869 29.8336 41.9709 30.8704 41.1005 32.048L34.1117 29.5904L35.8013 0.521623H65.6381V8.08642H39.9101L43.1741 5.05282L41.8301 26.8256L40.2557 24.7904C41.7149 23.3312 43.4557 22.2176 45.4781 21.4496C47.5005 20.6816 49.5101 20.2976 51.5069 20.2976C54.9373 20.2976 57.9965 21.0912 60.6845 22.6784C63.3981 24.2656 65.5357 26.4288 67.0973 29.168C68.6589 31.8816 69.4397 34.9664 69.4397 38.4224C69.4397 41.8528 68.5565 44.976 66.7901 47.792C65.0237 50.5824 62.6813 52.8096 59.7629 54.4736C56.8445 56.1376 53.6701 56.9696 50.2397 56.9696ZM92.0579 45.5648V31.3568H77.8499V24.9056H92.0579V10.7744H98.5091V24.9056H112.679V31.3568H98.5091V45.5648H92.0579Z" fill="#AE83E4"/>
</svg>
