<svg width="100" height="100" viewBox="0 0 100 100" fill="none" xmlns="http://www.w3.org/2000/svg">
<path d="M12.5 50H28.125L34.375 40.625L46.875 59.375L53.125 50H62.5" stroke="#0773DF" stroke-width="1.6" stroke-linecap="round" stroke-linejoin="round"/>
<path d="M10.9821 37.4975C10.9526 36.9794 10.9377 36.4594 10.9375 35.9375C10.9383 31.2427 12.5651 26.6931 15.5412 23.0622C18.5173 19.4312 22.6591 16.9431 27.2625 16.0209C31.8658 15.0986 36.6464 15.7991 40.7916 18.0033C44.9368 20.2074 48.1907 23.7792 50 28.1113L50 28.1114C51.8093 23.7792 55.0632 20.2074 59.2084 18.0033C63.3536 15.7991 68.1342 15.0986 72.7375 16.0209C77.3408 16.9431 81.4827 19.4312 84.4588 23.0622C87.4349 26.6931 89.0617 31.2427 89.0625 35.9375C89.0625 62.5 50 84.375 50 84.375C50 84.375 34.3966 75.6371 22.9131 62.5004" stroke="#0773DF" stroke-width="1.6" stroke-linecap="round" stroke-linejoin="round"/>
</svg>
