<svg width="80" height="72" viewBox="0 0 80 72" fill="none" xmlns="http://www.w3.org/2000/svg">
<path d="M0.982136 23.4975C0.952579 22.9794 0.937701 22.4594 0.9375 21.9375C0.938295 17.2427 2.56505 12.6931 5.54119 9.06217C8.51733 5.43125 12.6591 2.94314 17.2625 2.02086C21.8658 1.09859 26.6464 1.79909 30.7916 4.00325C34.9368 6.20742 38.1907 9.7792 40 14.1113L40 14.1114C41.8093 9.77923 45.0632 6.20744 49.2084 4.00327C53.3536 1.7991 58.1342 1.09859 62.7375 2.02086C67.3408 2.94313 71.4827 5.43124 74.4588 9.06217C77.4349 12.6931 79.0617 17.2427 79.0625 21.9375C79.0625 48.5 40 70.375 40 70.375C40 70.375 24.3966 61.6371 12.9131 48.5004" stroke="#AE83E4" stroke-width="1.6" stroke-linecap="round" stroke-linejoin="round"/>
</svg>
