<svg width="142" height="46" viewBox="0 0 142 46" fill="none" xmlns="http://www.w3.org/2000/svg">
<path d="M12.7343 39.0971C12.6616 39.0971 12.5888 39.0971 12.516 39.0599C10.6969 38.3129 8.98684 37.342 7.45871 36.0726C5.93057 34.8403 4.62075 33.3839 3.49285 31.7409C1.20067 28.3427 0 24.3471 0 20.2021C0 17.4762 0.509376 14.8248 1.56451 12.3229C2.54687 9.89565 4.00222 7.72983 5.78505 5.9001C7.60419 4.03297 9.71448 2.57663 12.0795 1.56839C14.5172 0.522797 17.1004 0 19.7564 0C22.4124 0 24.9957 0.560148 27.4698 1.64306C29.8348 2.68861 31.9814 4.18234 33.8369 6.04939C35.6925 7.95386 37.1479 10.1197 38.1668 12.547C39.2217 15.0489 39.7674 17.7375 39.7674 20.4635C39.7674 23.0774 39.1492 25.8407 38.021 28.38C37.0389 30.6204 35.6562 32.5997 34.2008 33.944C34.1281 34.0188 34.0189 34.0933 33.9461 34.1682C33.1093 34.9148 32.5271 35.4749 31.6176 35.6242C30.6715 35.7739 29.5073 35.4376 27.5425 34.5789C27.3243 34.5041 22.7763 32.0023 22.2669 31.7409L22.5216 31.2553C24.5227 32.3382 27.5789 34.0188 27.7609 34.0933C31.472 35.7363 32.0541 35.2135 33.5822 33.7947C33.655 33.7198 33.7278 33.6453 33.8369 33.5705C36.4203 31.1809 39.2217 26.1022 39.2217 20.5008C39.2217 9.74632 30.3442 0.597462 19.7928 0.597462C14.6627 0.597462 9.82362 2.61395 6.22161 6.34816C2.58325 10.0824 0.58214 15.0116 0.58214 20.2768C0.58214 28.4174 5.34842 35.6242 12.7707 38.5743C12.8071 38.5743 12.8435 38.5743 12.8435 38.537L19.9019 27.6705L21.7939 28.3427L21.612 28.8654L20.1203 28.3427L13.2437 38.8357C13.1346 38.985 12.9527 39.0971 12.7343 39.0971Z" fill="#222222"/>
<path d="M18.9976 29.5381C19.3251 29.0154 20.0164 28.866 20.5621 29.1646C20.5621 29.1646 20.5621 29.1646 20.5985 29.1646C20.5985 29.1646 24.7099 31.4425 26.711 32.264C27.2931 32.4882 28.1663 32.264 28.5666 31.816C31.2954 28.9407 32.969 24.7957 32.969 20.3894C32.969 10.419 23.6911 2.68918 13.54 5.78861C8.99206 7.17025 5.39009 10.7551 3.97109 15.3855C1.0604 24.7584 6.69991 33.4966 14.8863 35.3261C15.0318 35.3634 15.1773 35.2889 15.2501 35.1768L18.9976 29.5381Z" fill="#222222"/>
<path d="M16.52 43.4663L13.5365 43.2049C12.8089 43.1672 12.4086 42.3085 12.8452 41.7112L19.5399 31.5539C19.8673 31.0687 20.7042 30.5086 21.2499 30.7324L24.5244 32.3382L18.5939 42.3458C18.1573 43.0928 17.3568 43.5407 16.52 43.4663Z" fill="#222222"/>
<path d="M68.5765 17.8575C71.1792 16.522 72.5211 14.2683 72.5211 11.5555C72.5211 7.13157 68.8613 3.91797 61.0131 3.91797H45.8047V33.1325H61.8262C69.6743 33.1325 73.863 30.1693 73.863 25.0777C73.863 21.6137 71.9111 19.1095 68.5765 17.8575ZM59.7116 10.8043C61.8669 10.8043 62.8429 11.5555 62.8429 12.9745C62.8429 14.3935 61.8669 15.1447 59.7116 15.1447H55.2388V10.8043H59.7116ZM61.0131 26.2462H55.2388V21.6554H61.0131C63.1277 21.6554 64.1848 22.4484 64.1848 23.9508C64.1848 25.4533 63.1277 26.2462 61.0131 26.2462ZM90.9598 3.91797H77.2562V33.1325H86.8529V25.9541H90.9598C98.8894 25.9541 103.932 21.6971 103.932 14.936C103.932 8.17494 98.8894 3.91797 90.9598 3.91797ZM90.3497 18.3583H86.8529V11.5138H90.3497C92.9932 11.5138 94.2536 12.8076 94.2536 14.936C94.2536 17.0645 92.9932 18.3583 90.3497 18.3583ZM141.237 33.1325L141.155 3.91797H133.266L124.239 19.4852L114.968 3.91797H107.079V33.1325H115.821V20.2781L122.002 30.5034H126.232L132.413 19.819L132.494 33.1325H141.237Z" fill="#222222"/>
<path d="M49.9045 45.9994C49.1061 45.9994 48.3832 45.8216 47.7356 45.466C47.0956 45.1027 46.591 44.6043 46.2218 43.9705C45.8605 43.3367 45.6797 42.6218 45.6797 41.8259C45.6797 41.03 45.8644 40.3151 46.2332 39.6812C46.6024 39.0474 47.1067 38.5527 47.7471 38.1971C48.3946 37.8338 49.1176 37.6523 49.9156 37.6523C50.5631 37.6523 51.1545 37.7684 51.6892 38.0003C52.2238 38.2321 52.6755 38.5684 53.0447 39.0087L52.0958 39.9248C51.5233 39.2909 50.8193 38.974 49.9835 38.974C49.4413 38.974 48.9557 39.0978 48.5261 39.345C48.0969 39.5845 47.7621 39.9208 47.5208 40.3534C47.28 40.7864 47.1595 41.2771 47.1595 41.8259C47.1595 42.3746 47.28 42.8653 47.5208 43.2984C47.7621 43.731 48.0969 44.0709 48.5261 44.3185C48.9557 44.558 49.4413 44.6777 49.9835 44.6777C50.8193 44.6777 51.5233 44.3572 52.0958 43.7157L53.0447 44.643C52.6755 45.0834 52.2199 45.4196 51.6777 45.6515C51.1431 45.8833 50.552 45.9994 49.9045 45.9994ZM67.8932 37.7684H69.3617V44.6084H73.4957V45.8833H67.8932V37.7684ZM91.647 45.9994C90.8412 45.9994 90.115 45.8216 89.4671 45.466C88.8192 45.1027 88.311 44.6043 87.9422 43.9705C87.5734 43.329 87.3887 42.6142 87.3887 41.8259C87.3887 41.0376 87.5734 40.3264 87.9422 39.6929C88.311 39.0511 88.8192 38.5527 89.4671 38.1971C90.115 37.8338 90.8412 37.6523 91.647 37.6523C92.4533 37.6523 93.1794 37.8338 93.8273 38.1971C94.4749 38.5527 94.9834 39.0474 95.3522 39.6812C95.721 40.3151 95.9058 41.03 95.9058 41.8259C95.9058 42.6218 95.721 43.3367 95.3522 43.9705C94.9834 44.6043 94.4749 45.1027 93.8273 45.466C93.1794 45.8216 92.4533 45.9994 91.647 45.9994ZM91.647 44.6777C92.1742 44.6777 92.6484 44.558 93.0704 44.3185C93.4925 44.0709 93.8234 43.731 94.0643 43.2984C94.3055 42.8577 94.4259 42.367 94.4259 41.8259C94.4259 41.2848 94.3055 40.7981 94.0643 40.3651C93.8234 39.9248 93.4925 39.5845 93.0704 39.345C92.6484 39.0978 92.1742 38.974 91.647 38.974C91.1203 38.974 90.6457 39.0978 90.224 39.345C89.802 39.5845 89.471 39.9248 89.2298 40.3651C88.989 40.7981 88.8685 41.2848 88.8685 41.8259C88.8685 42.367 88.989 42.8577 89.2298 43.2984C89.471 43.731 89.802 44.0709 90.224 44.3185C90.6457 44.558 91.1203 44.6777 91.647 44.6777ZM114.304 45.9994C113.212 45.9994 112.361 45.6865 111.751 45.0604C111.141 44.4265 110.836 43.5225 110.836 42.3476V37.7684H112.305V42.2896C112.305 43.8818 112.975 44.6777 114.315 44.6777C115.648 44.6777 116.315 43.8818 116.315 42.2896V37.7684H117.76V42.3476C117.76 43.5225 117.455 44.4265 116.845 45.0604C116.243 45.6865 115.395 45.9994 114.304 45.9994ZM133.258 37.7684H136.715C137.559 37.7684 138.308 37.9382 138.963 38.2785C139.618 38.6108 140.126 39.0861 140.488 39.7042C140.849 40.3151 141.03 41.0219 141.03 41.8259C141.03 42.6299 140.849 43.3407 140.488 43.9588C140.126 44.5697 139.618 45.045 138.963 45.385C138.308 45.7172 137.559 45.8833 136.715 45.8833H133.258V37.7684ZM136.647 44.6084C137.227 44.6084 137.736 44.4963 138.172 44.2721C138.616 44.0403 138.955 43.7157 139.189 43.2984C139.43 42.873 139.55 42.3823 139.55 41.8259C139.55 41.2695 139.43 40.7824 139.189 40.3651C138.955 39.9401 138.616 39.6155 138.172 39.3914C137.736 39.1595 137.227 39.0434 136.647 39.0434H134.727V44.6084H136.647Z" fill="#222222"/>
</svg>
