<svg width="185" height="60" viewBox="0 0 185 60" fill="none" xmlns="http://www.w3.org/2000/svg">
<path d="M58.7479 21.6717V30.485H70.3983V32.5361H58.7479V42.0545H56.3663V19.6206H71.8144V21.6717H58.7479Z" fill="black"/>
<path d="M82.6034 42.2148C80.9727 42.2148 79.503 41.8515 78.1942 41.1251C76.8854 40.3773 75.8556 39.3518 75.1046 38.0485C74.3537 36.7452 73.9782 35.2709 73.9782 33.6258C73.9782 31.9806 74.3537 30.5064 75.1046 29.2031C75.8556 27.8998 76.8854 26.8849 78.1942 26.1585C79.503 25.4321 80.9727 25.0688 82.6034 25.0688C84.234 25.0688 85.7037 25.4321 87.0125 26.1585C88.3213 26.8849 89.3404 27.8998 90.0699 29.2031C90.8209 30.5064 91.1963 31.9806 91.1963 33.6258C91.1963 35.2709 90.8209 36.7452 90.0699 38.0485C89.3404 39.3518 88.3213 40.3773 87.0125 41.1251C85.7037 41.8515 84.234 42.2148 82.6034 42.2148ZM82.6034 40.1957C83.8049 40.1957 84.8777 39.9286 85.8217 39.3945C86.7872 38.839 87.5382 38.0591 88.0745 37.055C88.6109 36.0508 88.8791 34.9077 88.8791 33.6258C88.8791 32.3438 88.6109 31.2008 88.0745 30.1966C87.5382 29.1924 86.7872 28.4232 85.8217 27.8891C84.8777 27.3336 83.8049 27.0558 82.6034 27.0558C81.4019 27.0558 80.3183 27.3336 79.3528 27.8891C78.4088 28.4232 77.6579 29.1924 77.1 30.1966C76.5636 31.2008 76.2954 32.3438 76.2954 33.6258C76.2954 34.9077 76.5636 36.0508 77.1 37.055C77.6579 38.0591 78.4088 38.839 79.3528 39.3945C80.3183 39.9286 81.4019 40.1957 82.6034 40.1957Z" fill="black"/>
<path d="M102.877 42.2148C101.204 42.2148 99.702 41.8515 98.3717 41.1251C97.0629 40.3987 96.0331 39.3838 95.2821 38.0805C94.5312 36.7558 94.1557 35.2709 94.1557 33.6258C94.1557 31.9806 94.5312 30.5064 95.2821 29.2031C96.0331 27.8998 97.0629 26.8849 98.3717 26.1585C99.702 25.4321 101.204 25.0688 102.877 25.0688C104.336 25.0688 105.634 25.3573 106.772 25.9341C107.93 26.4897 108.842 27.3122 109.507 28.4019L107.801 29.5556C107.244 28.7224 106.536 28.1028 105.677 27.6968C104.819 27.2695 103.886 27.0558 102.877 27.0558C101.654 27.0558 100.549 27.3336 99.5625 27.8891C98.597 28.4232 97.8353 29.1924 97.2775 30.1966C96.7411 31.2008 96.4729 32.3438 96.4729 33.6258C96.4729 34.9291 96.7411 36.0828 97.2775 37.087C97.8353 38.0698 98.597 38.839 99.5625 39.3945C100.549 39.9286 101.654 40.1957 102.877 40.1957C103.886 40.1957 104.819 39.9927 105.677 39.5868C106.536 39.1808 107.244 38.5612 107.801 37.728L109.507 38.8817C108.842 39.9714 107.93 40.8046 106.772 41.3815C105.613 41.937 104.315 42.2148 102.877 42.2148Z" fill="black"/>
<path d="M129.251 25.197V42.0545H127.063V38.9779C126.462 40.0034 125.636 40.8046 124.584 41.3815C123.533 41.937 122.332 42.2148 120.98 42.2148C118.77 42.2148 117.021 41.6058 115.734 40.388C114.468 39.1488 113.835 37.3434 113.835 34.9718V25.197H116.12V34.7475C116.12 36.5208 116.56 37.8668 117.44 38.7856C118.319 39.7043 119.574 40.1637 121.205 40.1637C122.986 40.1637 124.391 39.6295 125.421 38.5612C126.451 37.4716 126.966 35.9653 126.966 34.0424V25.197H129.251Z" fill="black"/>
<path d="M140.189 42.2148C138.815 42.2148 137.496 42.0225 136.23 41.6379C134.986 41.2319 134.009 40.7298 133.301 40.1316L134.331 38.3369C135.039 38.8924 135.93 39.3518 137.002 39.715C138.075 40.0568 139.191 40.2277 140.349 40.2277C141.894 40.2277 143.031 39.9927 143.761 39.5227C144.512 39.0313 144.887 38.3476 144.887 37.4716C144.887 36.852 144.684 36.3713 144.276 36.0294C143.868 35.6662 143.353 35.3991 142.731 35.2282C142.109 35.0359 141.283 34.8543 140.253 34.6834C138.88 34.427 137.775 34.1706 136.938 33.9142C136.101 33.6365 135.383 33.1771 134.782 32.5361C134.202 31.8952 133.913 31.0085 133.913 29.8761C133.913 28.466 134.503 27.3122 135.683 26.4149C136.863 25.5175 138.504 25.0688 140.607 25.0688C141.701 25.0688 142.795 25.2184 143.89 25.5175C144.984 25.7953 145.885 26.1692 146.593 26.6392L145.595 28.466C144.201 27.5045 142.538 27.0238 140.607 27.0238C139.148 27.0238 138.043 27.2802 137.292 27.793C136.563 28.3057 136.198 28.9787 136.198 29.812C136.198 30.453 136.402 30.9657 136.809 31.3503C137.238 31.7349 137.764 32.0233 138.386 32.2156C139.009 32.3866 139.867 32.5682 140.961 32.7605C142.313 33.0168 143.396 33.2732 144.212 33.5296C145.027 33.786 145.724 34.224 146.303 34.8436C146.883 35.4632 147.172 36.3178 147.172 37.4075C147.172 38.8817 146.55 40.0568 145.306 40.9328C144.083 41.7874 142.377 42.2148 140.189 42.2148Z" fill="black"/>
<path d="M160.302 19.6206H162.684V42.0545H160.302V19.6206Z" fill="black"/>
<path d="M174.391 21.6717H166.474V19.6206H184.69V21.6717H176.773V42.0545H174.391V21.6717Z" fill="black"/>
<path d="M45.6164 24.7052C45.047 22.8316 43.3636 21.4757 41.7049 20.5389C39.254 19.1584 36.506 18.3202 33.7581 17.7532C30.2674 17.0629 26.6777 16.8164 23.1375 16.9397C19.7707 17.0876 16.3543 17.5067 13.1359 18.4435C10.7345 19.1584 8.23413 20.0952 6.27837 21.6976C4.94152 22.8316 3.75321 24.3848 3.95126 26.2091C4.17407 28.2552 5.90702 29.7837 7.56571 30.7944C10.1156 32.3722 13.0616 33.2597 15.9829 33.8514C16.8989 34.0239 17.8396 34.1719 18.7556 34.2951C19.2508 34.3691 20.3896 34.3691 20.7114 33.8514C21.0332 33.309 19.8944 33.1118 19.5974 33.0871C16.8741 32.7173 14.1262 32.0764 11.6258 30.8684C9.94233 30.0795 8.15986 28.8962 7.39241 27.1459C5.78324 23.5466 10.5612 21.032 13.2102 20.0459C15.7353 19.1091 18.3595 18.616 21.058 18.3449C24.103 18.049 27.1728 18.123 30.2426 18.5174C32.7183 18.8626 35.293 19.4542 37.6448 20.5143C39.254 21.2292 40.987 22.24 41.9772 23.7931C44.5519 27.8361 38.8579 30.7698 35.7881 31.8052C35.3425 31.9531 34.8969 32.0764 34.4512 32.1996C34.4265 32.1996 34.4017 32.1996 34.377 32.1996C34.3027 32.1996 34.2037 32.175 34.1294 32.1503C32.1984 31.1642 27.0738 28.5017 24.5982 27.2691C23.9793 26.9486 23.2366 27.3924 23.2366 28.0827C23.2366 28.2799 23.2366 28.4771 23.2366 28.6743C23.3108 32.2243 23.8802 39.5215 23.8802 39.9652C23.8802 40.2117 25.8112 40.2364 25.8112 39.9652C25.836 37.4753 26.3559 32.6187 26.4054 30.0549C28.2374 30.967 30.0694 31.9285 31.8766 32.7667C32.2974 32.9639 32.6935 33.1364 33.0896 33.3337C33.1392 33.3583 33.5105 33.5062 33.5848 33.5062C34.1294 33.6295 34.7731 33.6048 35.2187 33.4816C38.14 32.7667 41.2593 31.7312 43.5616 29.7344C45.047 28.5017 46.2106 26.6775 45.6164 24.7052Z" fill="black"/>
<path d="M26.4793 28.7484L23.261 28.2554L23.7561 40.064C23.7561 40.1626 24.2512 40.2119 24.8702 40.2119C25.4891 40.2119 25.9842 40.1379 25.9842 40.0393L26.4793 28.7484Z" fill="black"/>
<path d="M26.0088 30.8681C26.0088 34.2702 26.0088 38.9049 26.0336 42.3069C26.0336 42.9972 25.4642 43.2684 24.87 42.9725C24.2016 42.6521 23.756 41.7646 23.756 41.0496C23.756 37.6476 23.756 33.0129 23.7312 29.6108C23.7312 28.9205 24.3006 28.6494 24.8948 28.9452C25.5384 29.2657 26.0088 30.1532 26.0088 30.8681Z" fill="black"/>
</svg>
