<svg width="162" height="73" viewBox="0 0 162 73" fill="none" xmlns="http://www.w3.org/2000/svg">
<path d="M24.184 0.987995C28.632 0.987995 32.648 2.06 36.232 4.204C39.816 6.316 42.664 9.228 44.776 12.94C46.888 16.652 47.944 20.892 47.944 25.66V47.644C47.944 52.7 46.888 57.132 44.776 60.94C42.696 64.716 39.784 67.66 36.04 69.772C32.328 71.884 28.04 72.94 23.176 72.94C19.528 72.94 16.104 72.252 12.904 70.876C9.704 69.5 6.92 67.452 4.552 64.732L11.944 57.868C13.256 59.564 14.904 60.924 16.888 61.948C18.872 62.972 20.968 63.484 23.176 63.484C26.024 63.484 28.536 62.796 30.712 61.42C32.92 60.044 34.632 58.252 35.848 56.044C37.064 53.836 37.672 51.468 37.672 48.94V36.268L39.688 38.476C37.704 41.068 35.24 43.116 32.296 44.62C29.352 46.124 26.2 46.876 22.84 46.876C18.52 46.876 14.68 45.884 11.32 43.9C7.96 41.916 5.304 39.212 3.352 35.788C1.4 32.364 0.424 28.492 0.424 24.172C0.424 19.852 1.512 15.948 3.688 12.46C5.864 8.972 8.744 6.188 12.328 4.108C15.912 2.028 19.864 0.987995 24.184 0.987995ZM24.184 10.684C21.688 10.684 19.4 11.292 17.32 12.508C15.272 13.692 13.64 15.308 12.424 17.356C11.208 19.404 10.6 21.676 10.6 24.172C10.6 26.668 11.208 28.956 12.424 31.036C13.64 33.084 15.272 34.716 17.32 35.932C19.368 37.148 21.64 37.756 24.136 37.756C26.632 37.756 28.904 37.148 30.952 35.932C33 34.716 34.632 33.084 35.848 31.036C37.064 28.956 37.672 26.668 37.672 24.172C37.672 21.708 37.064 19.452 35.848 17.404C34.664 15.356 33.048 13.724 31 12.508C28.952 11.292 26.68 10.684 24.184 10.684ZM83.473 72.94C78.961 72.94 74.961 72.044 71.473 70.252C68.017 68.428 65.297 65.9 63.313 62.668C61.361 59.436 60.385 55.692 60.385 51.436C60.385 47.468 61.313 43.836 63.169 40.54C65.025 37.244 67.793 34.652 71.473 32.764L71.281 36.22C68.337 34.396 66.065 32.124 64.465 29.404C62.897 26.652 62.113 23.58 62.113 20.188C62.113 16.252 63.025 12.844 64.849 9.964C66.673 7.084 69.185 4.85999 72.385 3.29199C75.617 1.724 79.313 0.939999 83.473 0.939999C87.633 0.939999 91.313 1.724 94.513 3.29199C97.713 4.85999 100.225 7.084 102.049 9.964C103.873 12.844 104.785 16.252 104.785 20.188C104.785 23.58 104.033 26.636 102.529 29.356C101.025 32.076 98.721 34.364 95.617 36.22L95.473 32.86C99.121 34.652 101.889 37.212 103.777 40.54C105.665 43.836 106.609 47.468 106.609 51.436C106.609 55.692 105.617 59.436 103.633 62.668C101.649 65.9 98.913 68.428 95.425 70.252C91.937 72.044 87.953 72.94 83.473 72.94ZM83.473 63.388C87.185 63.388 90.193 62.38 92.497 60.364C94.801 58.316 95.953 55.34 95.953 51.436C95.953 47.532 94.801 44.556 92.497 42.508C90.225 40.428 87.217 39.388 83.473 39.388C79.729 39.388 76.705 40.428 74.401 42.508C72.129 44.556 70.993 47.532 70.993 51.436C70.993 55.34 72.145 58.316 74.449 60.364C76.753 62.38 79.761 63.388 83.473 63.388ZM83.473 29.788C86.641 29.788 89.201 29.004 91.153 27.436C93.137 25.836 94.129 23.42 94.129 20.188C94.129 16.956 93.137 14.54 91.153 12.94C89.201 11.308 86.641 10.492 83.473 10.492C80.305 10.492 77.729 11.308 75.745 12.94C73.761 14.54 72.769 16.956 72.769 20.188C72.769 23.42 73.761 25.836 75.745 27.436C77.729 29.004 80.305 29.788 83.473 29.788ZM135.895 58.684V40.924H118.135V32.86H135.895V15.196H143.959V32.86H161.671V40.924H143.959V58.684H135.895Z" fill="#AE83E4"/>
</svg>
