<svg width="130" height="58" viewBox="0 0 130 58" fill="none" xmlns="http://www.w3.org/2000/svg">
<path d="M19.3472 0.408021C22.9056 0.408021 26.1184 1.26562 28.9856 2.98082C31.8528 4.67042 34.1312 7.00002 35.8208 9.96962C37.5104 12.9392 38.3552 16.3312 38.3552 20.1456V37.7328C38.3552 41.7776 37.5104 45.3232 35.8208 48.3696C34.1568 51.3904 31.8272 53.7456 28.832 55.4352C25.8624 57.1248 22.432 57.9696 18.5408 57.9696C15.6224 57.9696 12.8832 57.4192 10.3232 56.3184C7.7632 55.2176 5.536 53.5792 3.6416 51.4032L9.5552 45.912C10.6048 47.2688 11.9232 48.3568 13.5104 49.176C15.0976 49.9952 16.7744 50.4048 18.5408 50.4048C20.8192 50.4048 22.8288 49.8544 24.5696 48.7536C26.336 47.6528 27.7056 46.2192 28.6784 44.4528C29.6512 42.6864 30.1376 40.792 30.1376 38.7696V28.632L31.7504 30.3984C30.1632 32.472 28.192 34.1104 25.8368 35.3136C23.4816 36.5168 20.96 37.1184 18.272 37.1184C14.816 37.1184 11.744 36.3248 9.056 34.7376C6.368 33.1504 4.2432 30.9872 2.6816 28.248C1.12 25.5088 0.3392 22.4112 0.3392 18.9552C0.3392 15.4992 1.2096 12.376 2.9504 9.58562C4.6912 6.79522 6.9952 4.56802 9.8624 2.90402C12.7296 1.24002 15.8912 0.408021 19.3472 0.408021ZM19.3472 8.16482C17.3504 8.16482 15.52 8.65122 13.856 9.62402C12.2176 10.5712 10.912 11.864 9.9392 13.5024C8.9664 15.1408 8.48 16.9584 8.48 18.9552C8.48 20.952 8.9664 22.7824 9.9392 24.4464C10.912 26.0848 12.2176 27.3904 13.856 28.3632C15.4944 29.336 17.312 29.8224 19.3088 29.8224C21.3056 29.8224 23.1232 29.336 24.7616 28.3632C26.4 27.3904 27.7056 26.0848 28.6784 24.4464C29.6512 22.7824 30.1376 20.952 30.1376 18.9552C30.1376 16.984 29.6512 15.1792 28.6784 13.5408C27.7312 11.9024 26.4384 10.5968 24.8 9.62402C23.1616 8.65122 21.344 8.16482 19.3472 8.16482ZM66.7784 57.9696C63.1688 57.9696 59.9688 57.2528 57.1784 55.8192C54.4136 54.36 52.2376 52.3376 50.6504 49.752C49.0888 47.1664 48.308 44.1712 48.308 40.7664C48.308 37.592 49.0504 34.6864 50.5352 32.0496C52.02 29.4128 54.2344 27.3392 57.1784 25.8288L57.0248 28.5936C54.6696 27.1344 52.852 25.3168 51.572 23.1408C50.3176 20.9392 49.6904 18.4816 49.6904 15.768C49.6904 12.6192 50.42 9.89282 51.8792 7.58882C53.3384 5.28482 55.348 3.50562 57.908 2.25122C60.4936 0.996822 63.4504 0.369624 66.7784 0.369624C70.1064 0.369624 73.0504 0.996822 75.6104 2.25122C78.1704 3.50562 80.18 5.28482 81.6392 7.58882C83.0984 9.89282 83.828 12.6192 83.828 15.768C83.828 18.4816 83.2264 20.9264 82.0232 23.1024C80.82 25.2784 78.9768 27.1088 76.4936 28.5936L76.3784 25.9056C79.2968 27.3392 81.5112 29.3872 83.0216 32.0496C84.532 34.6864 85.2872 37.592 85.2872 40.7664C85.2872 44.1712 84.4936 47.1664 82.9064 49.752C81.3192 52.3376 79.1304 54.36 76.34 55.8192C73.5496 57.2528 70.3624 57.9696 66.7784 57.9696ZM66.7784 50.328C69.748 50.328 72.1544 49.5216 73.9976 47.9088C75.8408 46.2704 76.7624 43.8896 76.7624 40.7664C76.7624 37.6432 75.8408 35.2624 73.9976 33.624C72.18 31.96 69.7736 31.128 66.7784 31.128C63.7832 31.128 61.364 31.96 59.5208 33.624C57.7032 35.2624 56.7944 37.6432 56.7944 40.7664C56.7944 43.8896 57.716 46.2704 59.5592 47.9088C61.4024 49.5216 63.8088 50.328 66.7784 50.328ZM66.7784 23.448C69.3128 23.448 71.3608 22.8208 72.9224 21.5664C74.5096 20.2864 75.3032 18.3536 75.3032 15.768C75.3032 13.1824 74.5096 11.2496 72.9224 9.96962C71.3608 8.66402 69.3128 8.01122 66.7784 8.01122C64.244 8.01122 62.1832 8.66402 60.596 9.96962C59.0088 11.2496 58.2152 13.1824 58.2152 15.768C58.2152 18.3536 59.0088 20.2864 60.596 21.5664C62.1832 22.8208 64.244 23.448 66.7784 23.448ZM108.716 46.5648V32.3568H94.508V25.9056H108.716V11.7744H115.167V25.9056H129.337V32.3568H115.167V46.5648H108.716Z" fill="#AE83E4"/>
</svg>
