<svg width="243" height="109" viewBox="0 0 243 109" fill="none" xmlns="http://www.w3.org/2000/svg">
<path d="M35.776 0.231993C42.448 0.231993 48.472 1.83999 53.848 5.05599C59.224 8.22399 63.496 12.592 66.664 18.16C69.832 23.728 71.416 30.088 71.416 37.24V70.216C71.416 77.8 69.832 84.448 66.664 90.16C63.544 95.824 59.176 100.24 53.56 103.408C47.992 106.576 41.56 108.16 34.264 108.16C28.792 108.16 23.656 107.128 18.856 105.064C14.056 103 9.88 99.928 6.328 95.848L17.416 85.552C19.384 88.096 21.856 90.136 24.832 91.672C27.808 93.208 30.952 93.976 34.264 93.976C38.536 93.976 42.304 92.944 45.568 90.88C48.88 88.816 51.448 86.128 53.272 82.816C55.096 79.504 56.008 75.952 56.008 72.16V53.152L59.032 56.464C56.056 60.352 52.36 63.424 47.944 65.68C43.528 67.936 38.8 69.064 33.76 69.064C27.28 69.064 21.52 67.576 16.48 64.6C11.44 61.624 7.456 57.568 4.528 52.432C1.6 47.296 0.136 41.488 0.136 35.008C0.136 28.528 1.768 22.672 5.032 17.44C8.296 12.208 12.616 8.03199 17.992 4.912C23.368 1.79199 29.296 0.231993 35.776 0.231993ZM35.776 14.776C32.032 14.776 28.6 15.688 25.48 17.512C22.408 19.288 19.96 21.712 18.136 24.784C16.312 27.856 15.4 31.264 15.4 35.008C15.4 38.752 16.312 42.184 18.136 45.304C19.96 48.376 22.408 50.824 25.48 52.648C28.552 54.472 31.96 55.384 35.704 55.384C39.448 55.384 42.856 54.472 45.928 52.648C49 50.824 51.448 48.376 53.272 45.304C55.096 42.184 56.008 38.752 56.008 35.008C56.008 31.312 55.096 27.928 53.272 24.856C51.496 21.784 49.072 19.336 46 17.512C42.928 15.688 39.52 14.776 35.776 14.776ZM124.71 108.16C117.942 108.16 111.942 106.816 106.71 104.128C101.526 101.392 97.4455 97.6 94.4695 92.752C91.5415 87.904 90.0775 82.288 90.0775 75.904C90.0775 69.952 91.4695 64.504 94.2535 59.56C97.0375 54.616 101.19 50.728 106.71 47.896L106.422 53.08C102.006 50.344 98.5975 46.936 96.1975 42.856C93.8455 38.728 92.6695 34.12 92.6695 29.032C92.6695 23.128 94.0375 18.016 96.7735 13.696C99.5095 9.37599 103.278 6.03999 108.078 3.68799C112.926 1.336 118.47 0.159998 124.71 0.159998C130.95 0.159998 136.47 1.336 141.27 3.68799C146.07 6.03999 149.838 9.37599 152.574 13.696C155.31 18.016 156.678 23.128 156.678 29.032C156.678 34.12 155.55 38.704 153.294 42.784C151.038 46.864 147.582 50.296 142.926 53.08L142.71 48.04C148.182 50.728 152.334 54.568 155.166 59.56C157.998 64.504 159.414 69.952 159.414 75.904C159.414 82.288 157.926 87.904 154.95 92.752C151.974 97.6 147.87 101.392 142.638 104.128C137.406 106.816 131.43 108.16 124.71 108.16ZM124.71 93.832C130.278 93.832 134.79 92.32 138.246 89.296C141.702 86.224 143.43 81.76 143.43 75.904C143.43 70.048 141.702 65.584 138.246 62.512C134.838 59.392 130.326 57.832 124.71 57.832C119.094 57.832 114.558 59.392 111.102 62.512C107.694 65.584 105.99 70.048 105.99 75.904C105.99 81.76 107.718 86.224 111.174 89.296C114.63 92.32 119.142 93.832 124.71 93.832ZM124.71 43.432C129.462 43.432 133.302 42.256 136.23 39.904C139.206 37.504 140.694 33.88 140.694 29.032C140.694 24.184 139.206 20.56 136.23 18.16C133.302 15.712 129.462 14.488 124.71 14.488C119.958 14.488 116.094 15.712 113.118 18.16C110.142 20.56 108.654 24.184 108.654 29.032C108.654 33.88 110.142 37.504 113.118 39.904C116.094 42.256 119.958 43.432 124.71 43.432ZM203.343 86.776V60.136H176.703V48.04H203.343V21.544H215.439V48.04H242.007V60.136H215.439V86.776H203.343Z" fill="#AE83E4"/>
</svg>
