<svg width="182" height="82" viewBox="0 0 182 82" fill="none" xmlns="http://www.w3.org/2000/svg">
<path d="M26.832 0.604903C31.836 0.604903 36.354 1.8109 40.386 4.2229C44.418 6.5989 47.622 9.8749 49.998 14.0509C52.374 18.2269 53.562 22.9969 53.562 28.3609V53.0929C53.562 58.7809 52.374 63.7669 49.998 68.0509C47.658 72.2989 44.382 75.6109 40.17 77.9869C35.994 80.3629 31.17 81.5509 25.698 81.5509C21.594 81.5509 17.742 80.7769 14.142 79.2289C10.542 77.6809 7.41 75.3769 4.746 72.3169L13.062 64.5949C14.538 66.5029 16.392 68.0329 18.624 69.1849C20.856 70.3369 23.214 70.9129 25.698 70.9129C28.902 70.9129 31.728 70.1389 34.176 68.5909C36.66 67.0429 38.586 65.0269 39.954 62.5429C41.322 60.0589 42.006 57.3949 42.006 54.5509V40.2949L44.274 42.7789C42.042 45.6949 39.27 47.9989 35.958 49.6909C32.646 51.3829 29.1 52.2289 25.32 52.2289C20.46 52.2289 16.14 51.1129 12.36 48.8809C8.58 46.6489 5.592 43.6069 3.396 39.7549C1.2 35.9029 0.102 31.5469 0.102 26.6869C0.102 21.8269 1.326 17.4349 3.774 13.5109C6.222 9.5869 9.462 6.4549 13.494 4.11491C17.526 1.7749 21.972 0.604903 26.832 0.604903ZM26.832 11.5129C24.024 11.5129 21.45 12.1969 19.11 13.5649C16.806 14.8969 14.97 16.7149 13.602 19.0189C12.234 21.3229 11.55 23.8789 11.55 26.6869C11.55 29.4949 12.234 32.0689 13.602 34.4089C14.97 36.7129 16.806 38.5489 19.11 39.9169C21.414 41.2849 23.97 41.9689 26.778 41.9689C29.586 41.9689 32.142 41.2849 34.446 39.9169C36.75 38.5489 38.586 36.7129 39.954 34.4089C41.322 32.0689 42.006 29.4949 42.006 26.6869C42.006 23.9149 41.322 21.3769 39.954 19.0729C38.622 16.7689 36.804 14.9329 34.5 13.5649C32.196 12.1969 29.64 11.5129 26.832 11.5129ZM93.5321 81.5509C88.4561 81.5509 83.9561 80.5429 80.0321 78.5269C76.1441 76.4749 73.0841 73.6309 70.8521 69.9949C68.6561 66.3589 67.5581 62.1469 67.5581 57.3589C67.5581 52.8949 68.6021 48.8089 70.6901 45.1009C72.7781 41.3929 75.8921 38.4769 80.0321 36.3529L79.8161 40.2409C76.5041 38.1889 73.9481 35.6329 72.1481 32.5729C70.3841 29.4769 69.5021 26.0209 69.5021 22.2049C69.5021 17.7769 70.5281 13.9429 72.5801 10.7029C74.6321 7.4629 77.4581 4.9609 81.0581 3.1969C84.6941 1.4329 88.8521 0.550907 93.5321 0.550907C98.2121 0.550907 102.352 1.4329 105.952 3.1969C109.552 4.9609 112.378 7.4629 114.43 10.7029C116.482 13.9429 117.508 17.7769 117.508 22.2049C117.508 26.0209 116.662 29.4589 114.97 32.5189C113.278 35.5789 110.686 38.1529 107.194 40.2409L107.032 36.4609C111.136 38.4769 114.25 41.3569 116.374 45.1009C118.498 48.8089 119.56 52.8949 119.56 57.3589C119.56 62.1469 118.444 66.3589 116.212 69.9949C113.98 73.6309 110.902 76.4749 106.978 78.5269C103.054 80.5429 98.5721 81.5509 93.5321 81.5509ZM93.5321 70.8049C97.7081 70.8049 101.092 69.6709 103.684 67.4029C106.276 65.0989 107.572 61.7509 107.572 57.3589C107.572 52.9669 106.276 49.6189 103.684 47.3149C101.128 44.9749 97.7441 43.8049 93.5321 43.8049C89.3201 43.8049 85.9181 44.9749 83.3261 47.3149C80.7701 49.6189 79.4921 52.9669 79.4921 57.3589C79.4921 61.7509 80.7881 65.0989 83.3801 67.4029C85.9721 69.6709 89.3561 70.8049 93.5321 70.8049ZM93.5321 33.0049C97.0961 33.0049 99.9761 32.1229 102.172 30.3589C104.404 28.5589 105.52 25.8409 105.52 22.2049C105.52 18.5689 104.404 15.8509 102.172 14.0509C99.9761 12.2149 97.0961 11.2969 93.5321 11.2969C89.9681 11.2969 87.0701 12.2149 84.8381 14.0509C82.6061 15.8509 81.4901 18.5689 81.4901 22.2049C81.4901 25.8409 82.6061 28.5589 84.8381 30.3589C87.0701 32.1229 89.9681 33.0049 93.5321 33.0049ZM152.507 65.5129V45.5329H132.527V36.4609H152.507V16.5889H161.579V36.4609H181.505V45.5329H161.579V65.5129H152.507Z" fill="#AE83E4"/>
</svg>
