<svg width="100" height="100" viewBox="0 0 100 100" fill="none" xmlns="http://www.w3.org/2000/svg">
<path d="M75 71.875H26.7558C26.0239 71.875 25.3153 71.6182 24.7534 71.1492C24.1916 70.6803 23.8121 70.0291 23.6812 69.309L13.2506 11.941C13.1197 11.2209 12.7402 10.5697 12.1784 10.1008C11.6165 9.63185 10.9079 9.375 10.176 9.375H3.125" stroke="#AE83E4" stroke-width="1.6" stroke-linecap="round" stroke-linejoin="round"/>
<path d="M28.125 87.5C32.4397 87.5 35.9375 84.0022 35.9375 79.6875C35.9375 75.3728 32.4397 71.875 28.125 71.875C23.8103 71.875 20.3125 75.3728 20.3125 79.6875C20.3125 84.0022 23.8103 87.5 28.125 87.5Z" stroke="#AE83E4" stroke-width="1.6" stroke-linecap="round" stroke-linejoin="round"/>
<path d="M75 87.5C79.3147 87.5 82.8125 84.0022 82.8125 79.6875C82.8125 75.3728 79.3147 71.875 75 71.875C70.6853 71.875 67.1875 75.3728 67.1875 79.6875C67.1875 84.0022 70.6853 87.5 75 87.5Z" stroke="#AE83E4" stroke-width="1.6" stroke-linecap="round" stroke-linejoin="round"/>
<path d="M15.625 25H83.7556C84.2133 25 84.6655 25.1005 85.08 25.2945C85.4946 25.4885 85.8615 25.7712 86.1548 26.1227C86.4481 26.4741 86.6606 26.8856 86.7773 27.3282C86.894 27.7708 86.9121 28.2337 86.8302 28.684L81.7166 56.809C81.5856 57.5291 81.2062 58.1803 80.6443 58.6492C80.0824 59.1182 79.3738 59.375 78.642 59.375H21.875" stroke="#AE83E4" stroke-width="1.6" stroke-linecap="round" stroke-linejoin="round"/>
</svg>
