<svg width="87" height="58" viewBox="0 0 87 58" fill="none" xmlns="http://www.w3.org/2000/svg">
<path d="M19.3171 57.9696C15.7331 57.9696 12.5075 57.1248 9.64031 55.4352C6.77311 53.72 4.49471 51.3776 2.80511 48.408C1.14111 45.4384 0.309106 42.0592 0.309106 38.2704V20.6448C0.309106 16.6256 1.14111 13.0928 2.80511 10.0464C4.49471 7.00002 6.82431 4.63202 9.79391 2.94242C12.7891 1.25282 16.2323 0.408021 20.1235 0.408021C23.0419 0.408021 25.7811 0.958421 28.3411 2.05922C30.9011 3.16002 33.1155 4.79842 34.9843 6.97442L29.1091 12.4656C28.0595 11.1088 26.7411 10.0336 25.1539 9.24002C23.5923 8.42082 21.9155 8.01122 20.1235 8.01122C17.8195 8.01122 15.7971 8.56162 14.0563 9.66242C12.3155 10.7376 10.9459 12.1584 9.94751 13.9248C8.97471 15.6912 8.48831 17.5856 8.48831 19.608V29.7456L6.91391 27.9792C8.50111 25.9056 10.4723 24.2672 12.8275 23.064C15.1827 21.8608 17.7043 21.2592 20.3923 21.2592C23.8227 21.2592 26.8819 22.0656 29.5699 23.6784C32.2835 25.2656 34.4083 27.4288 35.9443 30.168C37.5059 32.9072 38.2867 35.992 38.2867 39.4224C38.2867 42.8784 37.4163 46.0144 35.6755 48.8304C33.9603 51.6208 31.6563 53.848 28.7635 55.512C25.8963 57.1504 22.7475 57.9696 19.3171 57.9696ZM19.3171 50.2512C21.3139 50.2512 23.1315 49.7648 24.7699 48.792C26.4083 47.8192 27.7139 46.5136 28.6867 44.8752C29.6595 43.2368 30.1459 41.4192 30.1459 39.4224C30.1459 37.4256 29.6595 35.608 28.6867 33.9696C27.7395 32.3312 26.4467 31.0256 24.8083 30.0528C23.1699 29.08 21.3523 28.5936 19.3555 28.5936C17.3587 28.5936 15.5283 29.08 13.8643 30.0528C12.2259 31.0256 10.9203 32.3312 9.94751 33.9696C8.97471 35.608 8.48831 37.4256 8.48831 39.4224C8.48831 41.3936 8.97471 43.1984 9.94751 44.8368C10.9203 46.4752 12.2259 47.7936 13.8643 48.792C15.5027 49.7648 17.3203 50.2512 19.3171 50.2512ZM67.2859 57.9696C63.5227 57.9696 60.1947 57.1504 57.3019 55.512C54.4091 53.848 52.1307 51.5696 50.4667 48.6768C48.8283 45.784 48.0091 42.456 48.0091 38.6928V19.6464C48.0091 15.8832 48.8283 12.5552 50.4667 9.66242C52.1307 6.76962 54.4091 4.50402 57.3019 2.86562C60.1947 1.20162 63.5227 0.369624 67.2859 0.369624C71.0491 0.369624 74.3771 1.20162 77.2699 2.86562C80.1627 4.50402 82.4283 6.76962 84.0667 9.66242C85.7307 12.5552 86.5627 15.8832 86.5627 19.6464V38.6928C86.5627 42.456 85.7307 45.784 84.0667 48.6768C82.4283 51.5696 80.1627 53.848 77.2699 55.512C74.3771 57.1504 71.0491 57.9696 67.2859 57.9696ZM67.2859 50.2896C69.3339 50.2896 71.1899 49.8032 72.8539 48.8304C74.5435 47.832 75.8875 46.5008 76.8859 44.8368C77.8843 43.1472 78.3835 41.2656 78.3835 39.192V19.0704C78.3835 17.0224 77.8843 15.1664 76.8859 13.5024C75.8875 11.8128 74.5435 10.4816 72.8539 9.50882C71.1899 8.51042 69.3339 8.01122 67.2859 8.01122C65.2379 8.01122 63.3691 8.51042 61.6795 9.50882C60.0155 10.4816 58.6843 11.8128 57.6859 13.5024C56.6875 15.1664 56.1883 17.0224 56.1883 19.0704V39.192C56.1883 41.2656 56.6875 43.1472 57.6859 44.8368C58.6843 46.5008 60.0155 47.832 61.6795 48.8304C63.3691 49.8032 65.2379 50.2896 67.2859 50.2896Z" fill="#AE83E4"/>
</svg>
