<svg width="162" height="109" viewBox="0 0 162 109" fill="none" xmlns="http://www.w3.org/2000/svg">
<path d="M35.72 108.16C29 108.16 22.952 106.576 17.576 103.408C12.2 100.192 7.928 95.8 4.76 90.232C1.64 84.664 0.08 78.328 0.08 71.224V38.176C0.08 30.64 1.64 24.016 4.76 18.304C7.928 12.592 12.296 8.152 17.864 4.98399C23.48 1.81599 29.936 0.231993 37.232 0.231993C42.704 0.231993 47.84 1.26399 52.64 3.32799C57.44 5.392 61.592 8.464 65.096 12.544L54.08 22.84C52.112 20.296 49.64 18.28 46.664 16.792C43.736 15.256 40.592 14.488 37.232 14.488C32.912 14.488 29.12 15.52 25.856 17.584C22.592 19.6 20.024 22.264 18.152 25.576C16.328 28.888 15.416 32.44 15.416 36.232V55.24L12.464 51.928C15.44 48.04 19.136 44.968 23.552 42.712C27.968 40.456 32.696 39.328 37.736 39.328C44.168 39.328 49.904 40.84 54.944 43.864C60.032 46.84 64.016 50.896 66.896 56.032C69.824 61.168 71.288 66.952 71.288 73.384C71.288 79.864 69.656 85.744 66.392 91.024C63.176 96.256 58.856 100.432 53.432 103.552C48.056 106.624 42.152 108.16 35.72 108.16ZM35.72 93.688C39.464 93.688 42.872 92.776 45.944 90.952C49.016 89.128 51.464 86.68 53.288 83.608C55.112 80.536 56.024 77.128 56.024 73.384C56.024 69.64 55.112 66.232 53.288 63.16C51.512 60.088 49.088 57.64 46.016 55.816C42.944 53.992 39.536 53.08 35.792 53.08C32.048 53.08 28.616 53.992 25.496 55.816C22.424 57.64 19.976 60.088 18.152 63.16C16.328 66.232 15.416 69.64 15.416 73.384C15.416 77.08 16.328 80.464 18.152 83.536C19.976 86.608 22.424 89.08 25.496 90.952C28.568 92.776 31.976 93.688 35.72 93.688ZM125.662 108.16C118.606 108.16 112.366 106.624 106.942 103.552C101.518 100.432 97.2455 96.16 94.1255 90.736C91.0535 85.312 89.5175 79.072 89.5175 72.016V36.304C89.5175 29.248 91.0535 23.008 94.1255 17.584C97.2455 12.16 101.518 7.91199 106.942 4.83999C112.366 1.72 118.606 0.159998 125.662 0.159998C132.718 0.159998 138.958 1.72 144.382 4.83999C149.806 7.91199 154.054 12.16 157.125 17.584C160.246 23.008 161.806 29.248 161.806 36.304V72.016C161.806 79.072 160.246 85.312 157.125 90.736C154.054 96.16 149.806 100.432 144.382 103.552C138.958 106.624 132.718 108.16 125.662 108.16ZM125.662 93.76C129.502 93.76 132.982 92.848 136.102 91.024C139.27 89.152 141.79 86.656 143.662 83.536C145.534 80.368 146.47 76.84 146.47 72.952V35.224C146.47 31.384 145.534 27.904 143.662 24.784C141.79 21.616 139.27 19.12 136.102 17.296C132.982 15.424 129.502 14.488 125.662 14.488C121.822 14.488 118.318 15.424 115.15 17.296C112.03 19.12 109.534 21.616 107.662 24.784C105.79 27.904 104.854 31.384 104.854 35.224V72.952C104.854 76.84 105.79 80.368 107.662 83.536C109.534 86.656 112.03 89.152 115.15 91.024C118.318 92.848 121.822 93.76 125.662 93.76Z" fill="#AE83E4"/>
</svg>
