<svg width="122" height="82" viewBox="0 0 122 82" fill="none" xmlns="http://www.w3.org/2000/svg">
<path d="M27.04 81.5509C22 81.5509 17.464 80.3629 13.432 77.9869C9.4 75.5749 6.196 72.2809 3.82 68.1049C1.48 63.9289 0.31 59.1769 0.31 53.8489V29.0629C0.31 23.4109 1.48 18.4429 3.82 14.1589C6.196 9.87491 9.472 6.54491 13.648 4.1689C17.86 1.7929 22.702 0.604903 28.174 0.604903C32.278 0.604903 36.13 1.3789 39.73 2.9269C43.33 4.47491 46.444 6.77891 49.072 9.8389L40.81 17.5609C39.334 15.6529 37.48 14.1409 35.248 13.0249C33.052 11.8729 30.694 11.2969 28.174 11.2969C24.934 11.2969 22.09 12.0709 19.642 13.6189C17.194 15.1309 15.268 17.1289 13.864 19.6129C12.496 22.0969 11.812 24.7609 11.812 27.6049V41.8609L9.598 39.3769C11.83 36.4609 14.602 34.1569 17.914 32.4649C21.226 30.7729 24.772 29.9269 28.552 29.9269C33.376 29.9269 37.678 31.0609 41.458 33.3289C45.274 35.5609 48.262 38.6029 50.422 42.4549C52.618 46.3069 53.716 50.6449 53.716 55.4689C53.716 60.3289 52.492 64.7389 50.044 68.6989C47.632 72.6229 44.392 75.7549 40.324 78.0949C36.292 80.3989 31.864 81.5509 27.04 81.5509ZM27.04 70.6969C29.848 70.6969 32.404 70.0129 34.708 68.6449C37.012 67.2769 38.848 65.4409 40.216 63.1369C41.584 60.8329 42.268 58.2769 42.268 55.4689C42.268 52.6609 41.584 50.1049 40.216 47.8009C38.884 45.4969 37.066 43.6609 34.762 42.2929C32.458 40.9249 29.902 40.2409 27.094 40.2409C24.286 40.2409 21.712 40.9249 19.372 42.2929C17.068 43.6609 15.232 45.4969 13.864 47.8009C12.496 50.1049 11.812 52.6609 11.812 55.4689C11.812 58.2409 12.496 60.7789 13.864 63.0829C15.232 65.3869 17.068 67.2409 19.372 68.6449C21.676 70.0129 24.232 70.6969 27.04 70.6969ZM94.4961 81.5509C89.2041 81.5509 84.5241 80.3989 80.4561 78.0949C76.3881 75.7549 73.1841 72.5509 70.8441 68.4829C68.5401 64.4149 67.3881 59.7349 67.3881 54.4429V27.6589C67.3881 22.3669 68.5401 17.6869 70.8441 13.6189C73.1841 9.5509 76.3881 6.3649 80.4561 4.0609C84.5241 1.72091 89.2041 0.550907 94.4961 0.550907C99.7881 0.550907 104.468 1.72091 108.536 4.0609C112.604 6.3649 115.79 9.5509 118.094 13.6189C120.434 17.6869 121.604 22.3669 121.604 27.6589V54.4429C121.604 59.7349 120.434 64.4149 118.094 68.4829C115.79 72.5509 112.604 75.7549 108.536 78.0949C104.468 80.3989 99.7881 81.5509 94.4961 81.5509ZM94.4961 70.7509C97.3761 70.7509 99.9861 70.0669 102.326 68.6989C104.702 67.2949 106.592 65.4229 107.996 63.0829C109.4 60.7069 110.102 58.0609 110.102 55.1449V26.8489C110.102 23.9689 109.4 21.3589 107.996 19.0189C106.592 16.6429 104.702 14.7709 102.326 13.4029C99.9861 11.9989 97.3761 11.2969 94.4961 11.2969C91.6161 11.2969 88.9881 11.9989 86.6121 13.4029C84.2721 14.7709 82.4001 16.6429 80.9961 19.0189C79.5921 21.3589 78.8901 23.9689 78.8901 26.8489V55.1449C78.8901 58.0609 79.5921 60.7069 80.9961 63.0829C82.4001 65.4229 84.2721 67.2949 86.6121 68.6989C88.9881 70.0669 91.6161 70.7509 94.4961 70.7509Z" fill="#AE83E4"/>
</svg>
