<svg width="100" height="71" viewBox="0 0 100 71" fill="none" xmlns="http://www.w3.org/2000/svg">
<path d="M13.768 69.5V11.42L0.76 19.34V8.15599L13.768 0.379997H23.992V69.5H13.768ZM62.716 70.94C59.164 70.94 55.852 70.22 52.78 68.78C49.74 67.308 47.132 65.292 44.956 62.732C42.78 60.14 41.228 57.164 40.3 53.804L49.948 51.212C50.492 53.26 51.42 55.036 52.732 56.54C54.076 58.044 55.644 59.212 57.436 60.044C59.228 60.844 61.084 61.244 63.004 61.244C65.532 61.244 67.82 60.636 69.868 59.42C71.948 58.204 73.58 56.572 74.764 54.524C75.98 52.476 76.588 50.22 76.588 47.756C76.588 45.228 75.964 42.94 74.716 40.892C73.5 38.844 71.852 37.228 69.772 36.044C67.724 34.828 65.468 34.22 63.004 34.22C60.188 34.22 57.804 34.78 55.852 35.9C53.9 37.02 52.38 38.316 51.292 39.788L42.556 36.716L44.668 0.379997H81.964V9.836H49.804L53.884 6.044L52.204 33.26L50.236 30.716C52.06 28.892 54.236 27.5 56.764 26.54C59.292 25.58 61.804 25.1 64.3 25.1C68.588 25.1 72.412 26.092 75.772 28.076C79.164 30.06 81.836 32.764 83.788 36.188C85.74 39.58 86.716 43.436 86.716 47.756C86.716 52.044 85.612 55.948 83.404 59.468C81.196 62.956 78.268 65.74 74.62 67.82C70.972 69.9 67.004 70.94 62.716 70.94ZM114.989 56.684V38.924H97.2288V30.86H114.989V13.196H123.053V30.86H140.765V38.924H123.053V56.684H114.989Z" fill="#AE83E4"/>
</svg>
