<svg width="100" height="100" viewBox="0 0 100 100" fill="none" xmlns="http://www.w3.org/2000/svg">
<path d="M9.375 84.375H65.625" stroke="#0773DF" stroke-width="1.6" stroke-linecap="round" stroke-linejoin="round"/>
<path d="M6.61213 54.8317L21.3369 68.6362C23.2988 70.4754 25.8015 71.6329 28.4734 71.9369C31.1454 72.2408 33.8441 71.6749 36.1689 70.3233L95.3125 35.9375L88.0315 27.0385C86.1426 24.7299 83.4904 23.1728 80.554 22.6486C77.6175 22.1243 74.5903 22.6674 72.0193 24.1798L54.6875 34.375L31.25 26.5625L24.8051 29.3246C24.3229 29.5313 23.9005 29.856 23.5768 30.2688C23.2531 30.6816 23.0386 31.1693 22.953 31.6869C22.8673 32.2044 22.9134 32.7352 23.0868 33.2303C23.2603 33.7254 23.5556 34.1688 23.9455 34.5197L35.9375 45.3125L25 51.5625L14.0625 46.875L7.51845 49.6796C7.04122 49.8841 6.62247 50.2043 6.30004 50.6113C5.97761 51.0183 5.76166 51.4992 5.67171 52.0105C5.58175 52.5219 5.62063 53.0476 5.78482 53.5402C5.94902 54.0327 6.23335 54.4766 6.61213 54.8317V54.8317Z" stroke="#0773DF" stroke-width="1.6" stroke-linecap="round" stroke-linejoin="round"/>
</svg>
